<svg width="77" height="59" viewBox="0 0 77 59" fill="none" xmlns="http://www.w3.org/2000/svg">
<path d="M76.6 16.8L61.7 1.80005C61.2 1.30005 60.4 1.30005 60 1.80005L52.5 9.30005C52.3 9.50005 52.1 9.80005 52.1 10.2C52.1 10.5 52.2 10.8 52.5 11.1L53.2 11.8L51.5 13.5C50.4 14.6 48.7 14.9 47.2 14.3C45.8 13.7 44.3 13.4 42.8 13.4C41 13.4 39.3 13.8 37.7 14.7C37.1 14.5 36.4 14.5 35.7 14.5C34.7 14.5 33.8 14.7 32.9 15C31.4 15.5 29.9 15.2 28.8 14.1L25.7 11L26.1 10.6C26.3 10.4 26.5 10.1 26.5 9.70005C26.5 9.40005 26.4 9.10005 26.1 8.80005L18.6 1.30005C18.1 0.800049 17.3 0.800049 16.9 1.30005L0.399994 18C-0.100006 18.5 -0.100006 19.3001 0.399994 19.7001L7.89999 27.2001C8.09999 27.4001 8.39999 27.6 8.79999 27.6C9.09999 27.6 9.39999 27.5 9.69999 27.2001L10.1 26.8L12.3 29C12.8 29.5 13.2 30.2001 13.3 31C14 34.9001 15.9 38.4001 18.6 41.2001L19 41.6C18.2 42.4 17.8 43.5 17.8 44.6C17.8 45.8 18.3 46.9001 19.1 47.7001C20 48.6001 21.1 49 22.2 49C22.3 49 22.3 49 22.4 49C22.3 50.2001 22.8 51.4001 23.7 52.4001C24.5 53.2001 25.6 53.7001 26.8 53.7001H26.9C26.9 54.9001 27.3 56 28.2 56.9001C29 57.7001 30.1 58.2001 31.3 58.2001C32.5 58.2001 33.6 57.7001 34.4 56.9001C34.5 56.8001 34.5 56.8 34.6 56.7001C35 56.9001 35.5 56.9001 36 56.9001C37.1 56.9001 38.1 56.5 38.9 55.7001C39.3 55.3 39.6 54.8 39.8 54.3L39.9 54.4001C40.7 55.2001 41.8 55.6 42.8 55.6C43.9 55.6 44.9 55.2001 45.7 54.4001C46.1 54 46.5 53.5 46.7 52.9001C47.4 53.4001 48.3 53.7001 49.1 53.7001C50.2 53.7001 51.2 53.3 52 52.5C52.8 51.7001 53.2 50.7 53.2 49.6C53.2 49.3 53.2 48.9 53.1 48.6C53.9 48.4 54.6 48.1 55.2 47.5C56 46.7001 56.4 45.7 56.4 44.6C56.4 43.7 56.1 42.9001 55.6 42.2001L56.6 41.2001C59.4 38.4001 61.3 34.8 62 30.9C62.1 30.2 62.4 29.6 62.9 29.1L66.6 25.4L67.2 26C67.4 26.2001 67.8 26.4 68.1 26.4C68.4 26.4 68.7 26.3 69 26L76.5 18.5C76.7 18.3 76.9 18 76.9 17.6C77 17.3001 76.9 17 76.6 16.8ZM8.69999 24.6L2.99999 18.9L17.9 4.00005L23.6 9.70005L8.69999 24.6ZM23.6 45.9001C22.8 46.7001 21.6 46.7001 20.8 45.9001C20.4 45.5 20.2 45 20.2 44.5C20.2 44 20.4 43.5 20.8 43.1C21.2 42.7 21.7 42.5 22.2 42.5C22.7 42.5 23.2 42.7 23.6 43.1C24.4 43.9 24.4 45.1001 23.6 45.9001ZM28.2 50.5C27.8 50.9001 27.3 51.1 26.8 51.1C26.3 51.1 25.8 50.9001 25.4 50.5C24.6 49.7001 24.6 48.5 25.4 47.7001C25.8 47.3 26.3 47.1 26.8 47.1C27.3 47.1 27.8 47.3 28.2 47.7001C29 48.5 29 49.8 28.2 50.5ZM32.7 55C32.3 55.4001 31.8 55.6 31.3 55.6C30.8 55.6 30.3 55.4001 29.9 55C29.1 54.2001 29.1 53 29.9 52.2001C30.3 51.8 30.8 51.6 31.3 51.6C31.8 51.6 32.3 51.8 32.7 52.2001C33.5 53 33.5 54.3 32.7 55ZM53.6 45.6C53.3 45.9 52.9 46.1 52.4 46.1C52 46.1 51.5 45.9 51.2 45.6L39.3 33.7001C38.8 33.2001 38 33.2001 37.6 33.7001C37.1 34.2001 37.1 35 37.6 35.4001L50.5 48.2001C50.8 48.5 51 48.9001 51 49.4001C51 49.8001 50.8 50.3 50.5 50.6C49.8 51.3 48.8 51.3 48.1 50.6L45.9 48.4001L35.9 38.4001C35.4 37.9001 34.6 37.9001 34.2 38.4001C33.7 38.9001 33.7 39.7 34.2 40.1L44.2 50.1C44.5 50.4 44.7 50.8 44.7 51.3C44.7 51.7001 44.5 52.2001 44.2 52.5C43.5 53.2001 42.5 53.2001 41.8 52.5L30.9 41.7001C30.4 41.2001 29.6 41.2001 29.2 41.7001C28.7 42.2001 28.7 43 29.2 43.4001L37.2 51.4001C37.5 51.7001 37.7 52.1 37.7 52.6C37.7 53 37.5 53.5 37.2 53.8C36.9 54.1 36.5 54.3 36 54.3C35.9 54.3 35.8 54.3 35.7 54.3C35.9 53 35.5 51.5 34.5 50.5C33.7 49.7001 32.6 49.2001 31.4 49.2001H31.3C31.3 48 30.9 46.9001 30 46C29.2 45.2001 28.1 44.7001 26.9 44.7001C26.8 44.7001 26.8 44.7001 26.7 44.7001C26.8 43.5 26.3 42.3001 25.4 41.4001C24.3 40.3001 22.7 39.9001 21.3 40.2001L20.4 39.3C18 36.9 16.4 33.8 15.7 30.4C15.5 29.2 14.9 28 14 27.1L11.8 25L24.1 12.7L27.2 15.8C28.4 17 30 17.6 31.6 17.6C32.3 17.6 33.1 17.5 33.8 17.2001C34.1 17.1 34.5 17 34.9 16.9L27.3 24.5C26.4 25.4 25.9 26.7001 25.9 28C25.9 29.3 26.4 30.6 27.3 31.5C28.3 32.5 29.5 32.9 30.8 32.9C32.1 32.9 33.3 32.4 34.3 31.5L38.1 27.7001L39.1 28.7001L39.2 28.8L53.6 43.2001C53.9 43.5 54.1 43.9001 54.1 44.4001C54.1 44.9001 54 45.3 53.6 45.6ZM61.4 27.3C60.5 28.2 60 29.2 59.8 30.4C59.2 33.8 57.6 36.9001 55.1 39.4001L54.2 40.3L46.4 32.5C46.6 32.5 46.7 32.5 46.9 32.5C47.7 32.5 48.5 32.4 49.3 32C49.9 31.7001 50.2 31 50 30.4C49.7 29.8 49 29.5 48.4 29.7001C45.2 31 41.4 27.4 41 27H40.8L39.8 26L41 24.8C41.5 24.3 41.5 23.5 41 23.1C40.5 22.6 39.7 22.6 39.3 23.1L37.3 25.1L32.6 29.8C31.6 30.8 30.1 30.8 29.1 29.8C28.6 29.3 28.4 28.7001 28.4 28.1C28.4 27.5 28.7 26.8 29.1 26.4L37.2 18.3C37.7 17.8 38.2 17.5 38.7 17.1C40 16.3 41.5 15.9 43 15.9C44.2 15.9 45.3 16.2 46.4 16.6C48.8 17.7 51.6 17.2 53.4 15.3L55.1 13.6L65 23.6L61.4 27.3ZM68.3 23.4L55.1 10.2L60.8 4.50005L74 17.6L68.3 23.4Z" fill="#0045BF"/>
</svg>
