<svg width="29" height="30" viewBox="0 0 29 30" fill="none" xmlns="http://www.w3.org/2000/svg">
<path d="M7 12.5V1H20.3" fill="white"/>
<path d="M7 12.5V1H20.3" stroke="#0045BF" stroke-width="2" stroke-miterlimit="10"/>
<path d="M28 8.39999V29H7V24.2" fill="white"/>
<path d="M28 8.39999V29H7V24.2" stroke="#0045BF" stroke-width="2" stroke-miterlimit="10"/>
<path d="M3.6 24H17.4C18.8 24 20 22.8 20 21.4V15.6C20 14.2 18.8 13 17.4 13H3.6C2.2 13 1 14.2 1 15.6V21.4C1 22.8 2.2 24 3.6 24Z" fill="white" stroke="#0045BF" stroke-width="2" stroke-miterlimit="10"/>
<path d="M5.5999 18.9V20.6H4.3999V15.6H6.2999C6.8999 15.6 7.3999 15.8 7.6999 16.1C7.9999 16.4 8.1999 16.8 8.1999 17.3C8.1999 17.8 7.9999 18.2 7.6999 18.5C7.3999 18.8 6.8999 18.9 6.2999 18.9H5.5999ZM5.5999 18H6.2999C6.5999 18 6.6999 17.9 6.8999 17.8C7.0999 17.7 7.0999 17.5 7.0999 17.3C7.0999 17.1 6.9999 16.9 6.8999 16.8C6.7999 16.7 6.5999 16.6 6.2999 16.6H5.5999V18Z" fill="#0045BF"/>
<path d="M9 20.6V15.6H10.8C11.4 15.6 11.9 15.8 12.3 16.2C12.7 16.6 12.9 17.1 12.9 17.7V18.6C12.9 19.2 12.7 19.7 12.3 20.1C11.9 20.5 11.4 20.7 10.8 20.7H9V20.6ZM10.2 16.6V19.8H10.9C11.2 19.8 11.4 19.7 11.5 19.5C11.7 19.3 11.8 19 11.8 18.7V17.8C11.8 17.5 11.7 17.2 11.5 17C11.3 16.8 11.1 16.7 10.9 16.7H10.2V16.6Z" fill="#0045BF"/>
<path d="M16.6997 18.6H14.8997V20.6H13.6997V15.6H16.9997V16.5H14.7997V17.7H16.5997V18.6H16.6997Z" fill="#0045BF"/>
<path d="M20.9 1H20V9H28V8.1L20.9 1Z" fill="white" stroke="#0045BF" stroke-width="2" stroke-miterlimit="10"/>
</svg>
