<svg width="31" height="31" viewBox="0 0 31 31" fill="none" xmlns="http://www.w3.org/2000/svg">
<path d="M13.2385 27.6896H1V1H22.5729V10.7493" stroke="#0045BF" stroke-width="2" stroke-miterlimit="10"/>
<path d="M21.3974 29.3488C25.7889 29.3488 29.3489 25.7888 29.3489 21.3972C29.3489 17.0057 25.7889 13.4457 21.3974 13.4457C17.0058 13.4457 13.4458 17.0057 13.4458 21.3972C13.4458 25.7888 17.0058 29.3488 21.3974 29.3488Z" stroke="#0045BF" stroke-width="2" stroke-miterlimit="10"/>
<path d="M5.49414 19.9453H9.71192" stroke="#0045BF" stroke-width="2" stroke-miterlimit="10"/>
<path d="M5.49414 13.5148H13.584" stroke="#0045BF" stroke-width="2" stroke-miterlimit="10"/>
<path d="M5.49414 8.12161H18.8389" stroke="#0045BF" stroke-width="2" stroke-miterlimit="10"/>
<path d="M22.9875 24.0939C22.7801 24.5779 22.5726 24.9927 22.2961 25.4076C22.0195 25.8916 21.328 26.0299 20.6366 25.6842C20.0143 25.4076 19.6686 24.7162 19.7377 23.9556C19.8069 23.2641 19.9452 22.5727 20.0143 21.8813C20.0834 21.259 20.2909 20.6367 20.0834 19.9452C20.9132 19.8069 21.6738 19.7378 22.5035 19.5995C22.4343 20.1527 22.2961 20.7058 22.2269 21.259C22.0886 22.0887 21.9503 22.9184 21.812 23.7482C21.7429 24.163 21.812 24.2322 22.2269 24.163C22.3652 24.163 22.4343 24.163 22.5726 24.0939C22.7801 24.0939 22.8492 24.0939 22.9875 24.0939Z" fill="#0045BF"/>
<path d="M21.9503 16.9029C22.5726 16.9029 23.0566 17.3178 23.0566 17.9401C23.0566 18.5624 22.5035 19.1155 21.8812 19.1155C21.1898 19.1155 20.7749 18.7007 20.7749 18.0784C20.7057 17.3869 21.2589 16.9029 21.9503 16.9029Z" fill="#0045BF"/>
</svg>
