<svg width="21" height="22" viewBox="0 0 21 22" fill="none" xmlns="http://www.w3.org/2000/svg">
<path d="M10.4 6.99985C8.2 6.99985 6.4 8.79985 6.4 10.9999C6.4 13.1999 8.2 14.9999 10.4 14.9999C12.6 14.9999 14.4 13.1999 14.4 10.9999C14.4 8.79985 12.6 6.99985 10.4 6.99985ZM10.4 6.99985C8.2 6.99985 6.4 8.79985 6.4 10.9999C6.4 13.1999 8.2 14.9999 10.4 14.9999C12.6 14.9999 14.4 13.1999 14.4 10.9999C14.4 8.79985 12.6 6.99985 10.4 6.99985ZM17 0.599854H3.8C1.7 0.599854 0 2.29985 0 4.39985V17.5999C0 19.6999 1.7 21.3999 3.8 21.3999H17C19.1 21.3999 20.8 19.6999 20.8 17.5999V4.39985C20.9 2.29985 19.2 0.599854 17 0.599854ZM10.4 17.8999C6.6 17.8999 3.5 14.7999 3.5 10.9999C3.5 7.19985 6.6 4.09985 10.4 4.09985C14.2 4.09985 17.3 7.19985 17.3 10.9999C17.3 14.7999 14.2 17.8999 10.4 17.8999ZM17.5 5.49985C16.6 5.49985 15.9 4.79985 15.9 3.89985C15.9 2.99985 16.6 2.29985 17.5 2.29985C18.4 2.29985 19.1 2.99985 19.1 3.89985C19.1 4.79985 18.4 5.49985 17.5 5.49985ZM10.4 6.99985C8.2 6.99985 6.4 8.79985 6.4 10.9999C6.4 13.1999 8.2 14.9999 10.4 14.9999C12.6 14.9999 14.4 13.1999 14.4 10.9999C14.4 8.79985 12.6 6.99985 10.4 6.99985ZM17 0.599854H3.8C1.7 0.599854 0 2.29985 0 4.39985V17.5999C0 19.6999 1.7 21.3999 3.8 21.3999H17C19.1 21.3999 20.8 19.6999 20.8 17.5999V4.39985C20.9 2.29985 19.2 0.599854 17 0.599854ZM10.4 17.8999C6.6 17.8999 3.5 14.7999 3.5 10.9999C3.5 7.19985 6.6 4.09985 10.4 4.09985C14.2 4.09985 17.3 7.19985 17.3 10.9999C17.3 14.7999 14.2 17.8999 10.4 17.8999ZM17.5 5.49985C16.6 5.49985 15.9 4.79985 15.9 3.89985C15.9 2.99985 16.6 2.29985 17.5 2.29985C18.4 2.29985 19.1 2.99985 19.1 3.89985C19.1 4.79985 18.4 5.49985 17.5 5.49985ZM10.4 6.99985C8.2 6.99985 6.4 8.79985 6.4 10.9999C6.4 13.1999 8.2 14.9999 10.4 14.9999C12.6 14.9999 14.4 13.1999 14.4 10.9999C14.4 8.79985 12.6 6.99985 10.4 6.99985ZM17 0.599854H3.8C1.7 0.599854 0 2.29985 0 4.39985V17.5999C0 19.6999 1.7 21.3999 3.8 21.3999H17C19.1 21.3999 20.8 19.6999 20.8 17.5999V4.39985C20.9 2.29985 19.2 0.599854 17 0.599854ZM10.4 17.8999C6.6 17.8999 3.5 14.7999 3.5 10.9999C3.5 7.19985 6.6 4.09985 10.4 4.09985C14.2 4.09985 17.3 7.19985 17.3 10.9999C17.3 14.7999 14.2 17.8999 10.4 17.8999ZM17.5 5.49985C16.6 5.49985 15.9 4.79985 15.9 3.89985C15.9 2.99985 16.6 2.29985 17.5 2.29985C18.4 2.29985 19.1 2.99985 19.1 3.89985C19.1 4.79985 18.4 5.49985 17.5 5.49985ZM10.4 6.99985C8.2 6.99985 6.4 8.79985 6.4 10.9999C6.4 13.1999 8.2 14.9999 10.4 14.9999C12.6 14.9999 14.4 13.1999 14.4 10.9999C14.4 8.79985 12.6 6.99985 10.4 6.99985ZM10.4 6.99985C8.2 6.99985 6.4 8.79985 6.4 10.9999C6.4 13.1999 8.2 14.9999 10.4 14.9999C12.6 14.9999 14.4 13.1999 14.4 10.9999C14.4 8.79985 12.6 6.99985 10.4 6.99985ZM10.4 6.99985C8.2 6.99985 6.4 8.79985 6.4 10.9999C6.4 13.1999 8.2 14.9999 10.4 14.9999C12.6 14.9999 14.4 13.1999 14.4 10.9999C14.4 8.79985 12.6 6.99985 10.4 6.99985ZM17 0.599854H3.8C1.7 0.599854 0 2.29985 0 4.39985V17.5999C0 19.6999 1.7 21.3999 3.8 21.3999H17C19.1 21.3999 20.8 19.6999 20.8 17.5999V4.39985C20.9 2.29985 19.2 0.599854 17 0.599854ZM10.4 17.8999C6.6 17.8999 3.5 14.7999 3.5 10.9999C3.5 7.19985 6.6 4.09985 10.4 4.09985C14.2 4.09985 17.3 7.19985 17.3 10.9999C17.3 14.7999 14.2 17.8999 10.4 17.8999ZM17.5 5.49985C16.6 5.49985 15.9 4.79985 15.9 3.89985C15.9 2.99985 16.6 2.29985 17.5 2.29985C18.4 2.29985 19.1 2.99985 19.1 3.89985C19.1 4.79985 18.4 5.49985 17.5 5.49985ZM10.4 6.99985C8.2 6.99985 6.4 8.79985 6.4 10.9999C6.4 13.1999 8.2 14.9999 10.4 14.9999C12.6 14.9999 14.4 13.1999 14.4 10.9999C14.4 8.79985 12.6 6.99985 10.4 6.99985ZM10.4 6.99985C8.2 6.99985 6.4 8.79985 6.4 10.9999C6.4 13.1999 8.2 14.9999 10.4 14.9999C12.6 14.9999 14.4 13.1999 14.4 10.9999C14.4 8.79985 12.6 6.99985 10.4 6.99985ZM10.4 6.99985C8.2 6.99985 6.4 8.79985 6.4 10.9999C6.4 13.1999 8.2 14.9999 10.4 14.9999C12.6 14.9999 14.4 13.1999 14.4 10.9999C14.4 8.79985 12.6 6.99985 10.4 6.99985ZM17 0.599854H3.8C1.7 0.599854 0 2.29985 0 4.39985V17.5999C0 19.6999 1.7 21.3999 3.8 21.3999H17C19.1 21.3999 20.8 19.6999 20.8 17.5999V4.39985C20.9 2.29985 19.2 0.599854 17 0.599854ZM10.4 17.8999C6.6 17.8999 3.5 14.7999 3.5 10.9999C3.5 7.19985 6.6 4.09985 10.4 4.09985C14.2 4.09985 17.3 7.19985 17.3 10.9999C17.3 14.7999 14.2 17.8999 10.4 17.8999ZM17.5 5.49985C16.6 5.49985 15.9 4.79985 15.9 3.89985C15.9 2.99985 16.6 2.29985 17.5 2.29985C18.4 2.29985 19.1 2.99985 19.1 3.89985C19.1 4.79985 18.4 5.49985 17.5 5.49985ZM10.4 6.99985C8.2 6.99985 6.4 8.79985 6.4 10.9999C6.4 13.1999 8.2 14.9999 10.4 14.9999C12.6 14.9999 14.4 13.1999 14.4 10.9999C14.4 8.79985 12.6 6.99985 10.4 6.99985Z" fill="white" fill-opacity="0.3"/>
</svg>
