<svg width="27" height="27" viewBox="0 0 27 27" fill="none" xmlns="http://www.w3.org/2000/svg">
<path d="M6.2 1C6.5 1.3 6.9 1.6 7.2 2C8.1 3.5 8.9 5.1 9.7 6.7C10.1 7.5 10 8.1 9.4 8.7C9.1 9.1 8.7 9.4 8.4 9.7C8.1 10 8 10.2 8.2 10.6C8.7 11.4 9 12.3 9.6 13.1C10.9 14.8 12.3 16.2 14 17.4C14.3 17.6 14.7 17.8 15 18C16.1 18.6 16.2 18.5 17.1 17.7C17.4 17.4 17.7 17.1 17.9 16.9C18.5 16.4 19.2 16.2 19.8 16.6C21.5 17.6 23.1 18.5 24.7 19.5C25 19.7 25.1 20 25.4 20.3C25.4 20.5 25.4 20.7 25.4 20.8C25.2 21.1 24.9 21.4 24.7 21.7C23.9 22.5 23 23.4 22.2 24.2C21.7 24.7 21.1 25.2 20.4 25.5C20 25.5 19.7 25.5 19.3 25.5C18.4 25.3 17.5 25.2 16.7 24.9C14.1 24 11.8 22.6 9.7 20.8C6.6 18.1 3.8 15.1 2.2 11.3C1.6 10.1 1.4 8.7 1 7.4C1 7 1 6.6 1 6.1C1.2 5.4 1.7 4.8 2.2 4.3C3 3.6 3.7 2.8 4.4 2.1C4.8 1.7 5.3 1.4 5.7 1C5.9 1 6 1 6.2 1Z" stroke="#0B4AA8" stroke-width="2" stroke-miterlimit="10"/>
</svg>
