<svg width="24" height="24" viewBox="0 0 24 24" fill="none" xmlns="http://www.w3.org/2000/svg">
<path d="M6.5 3C6.5 2.72386 6.72386 2.5 7 2.5H17C17.2761 2.5 17.5 2.72386 17.5 3V7C17.5 7.27614 17.2761 7.5 17 7.5H7C6.72386 7.5 6.5 7.27614 6.5 7V3Z" stroke="#ABABAB"/>
<path d="M3.5 9C3.5 8.17157 4.17157 7.5 5 7.5H19C19.8284 7.5 20.5 8.17157 20.5 9V15C20.5 15.8284 19.8284 16.5 19 16.5H5C4.17157 16.5 3.5 15.8284 3.5 15V9Z" stroke="#ABABAB" stroke-linejoin="round"/>
<path d="M8 14L16 14V19L8 19V14Z" fill="white" stroke="#ABABAB" stroke-width="2"/>
<ellipse cx="7" cy="10" rx="1" ry="1" fill="#ABABAB"/>
<line x1="9.5" y1="16.5" x2="14.5" y2="16.5" stroke="#ABABAB" stroke-linecap="round"/>
</svg>
