<svg width="74" height="55" viewBox="0 0 74 55" fill="none" xmlns="http://www.w3.org/2000/svg">
<path d="M70.4 39.7L66 38.5C65.8 38.4 65.7 38.3 65.7 38.1V36.6C66.1 36.3 66.4 36.1 66.7 35.8C68.3 34.3 69.1 32.2 69.1 30.1V28L69.5 27.1C70 26.2 70.2 25.1 70.2 24V18.4C70.2 17.8 69.7 17.3 69.1 17.3H58.8C55 17.3 51.9 20.4 51.9 24.2V24.3C51.9 25.2 52.1 26.1 52.5 26.8L53.1 27.9V29.7C53.1 32.5 54.5 35 56.6 36.5V38.1C56.6 38.3 56.6 38.4 55.7 38.7L53.5 39.3L47.2 37C47.2 36.7 47.1 36.4 46.9 36.2L44.9 34.1V30.6C45.1 30.4 45.3 30.2 45.5 30.1C48 27.7 49.5 24.4 49.5 20.9V18.1C50.3 16.4 50.7 14.7 50.7 12.8V1.1C50.7 0.5 50.2 0 49.6 0H33.4C27.7 0 23.1 4.6 23.1 10.3V12.6C23.1 14.4 23.5 16.2 24.3 17.8V20.2C24.3 24.2 26.1 27.9 28.9 30.3V34L26.9 36.1C26.7 36.3 26.6 36.6 26.6 36.9L20 39.3C19.5 39.5 19.1 39.7 18.7 40L17.7 39.5C20.8 38.1 21.8 36.2 21.8 36.2C22 35.9 22 35.5 21.8 35.2C21 33.6 20.9 30.8 20.9 28.5C20.9 27.7 20.9 27 20.8 26.4C20.4 21.2 16.5 17.3 11.6 17.3C6.7 17.3 2.8 21.2 2.4 26.4C2.4 27 2.3 27.8 2.3 28.5C2.2 30.8 2.1 33.6 1.4 35.2C1.2 35.5 1.2 35.9 1.4 36.2C1.4 36.3 2.4 38.2 5.5 39.5L2.5 41C1 41.8 0 43.3 0 45.1V53.1C0 53.7 0.5 54.2 1.1 54.2C1.7 54.2 2.2 53.7 2.2 53.1V45.1C2.2 44.2 2.7 43.4 3.5 43L7.1 41.2L8.4 42.4C9.3 43.2 10.4 43.7 11.5 43.7C12.6 43.7 13.8 43.3 14.6 42.4L15.9 41.2L17.1 41.8C16.5 42.7 16.2 43.7 16.2 44.8V53C16.2 53.6 16.7 54.1 17.3 54.1C17.9 54.1 18.4 53.6 18.4 53V44.7C18.4 43.2 19.3 41.9 20.7 41.4L27.7 38.9L30.6 43.3C31 43.9 31.6 44.2 32.2 44.3C32.3 44.3 32.3 44.3 32.4 44.3C33 44.3 33.6 44.1 34 43.6L35.8 41.8V53C35.8 53.6 36.3 54.1 36.9 54.1C37.5 54.1 38 53.6 38 53V41.8L39.8 43.6C40.2 44 40.8 44.3 41.4 44.3C41.5 44.3 41.5 44.3 41.6 44.3C42.3 44.2 42.9 43.9 43.2 43.3L46.1 38.9L53.1 41.4C54.5 41.9 55.4 43.2 55.4 44.7V53C55.4 53.6 55.9 54.1 56.5 54.1C57.1 54.1 57.6 53.6 57.6 53V44.7C57.6 43.2 57 41.8 56 40.7L56.3 40.6C56.6 40.5 56.9 40.4 57.3 40.2L60.1 43V53C60.1 53.6 60.6 54.1 61.2 54.1C61.8 54.1 62.3 53.6 62.3 53V43.1L65 40.4C65.1 40.5 65.3 40.5 65.5 40.6L70 41.9C71 42.2 71.7 43.1 71.7 44.2V53C71.7 53.6 72.2 54.1 72.8 54.1C73.4 54.1 73.9 53.6 73.9 53V44.1C73.7 42.1 72.4 40.3 70.4 39.7ZM6.9 37.8C4.9 37.1 3.9 36.1 3.4 35.6C3.8 34.8 3.9 34 4.1 33C4.7 34.4 5.7 35.6 7 36.5V37.8H6.9ZM13.1 40.8C12.2 41.7 10.7 41.7 9.8 40.8L8.8 39.8C9 39.5 9.1 39.1 9.1 38.7V37.5C9.9 37.7 10.7 37.9 11.5 37.9C12.3 37.9 13.1 37.8 13.9 37.5V38.6C13.9 39 14 39.3 14.2 39.7L13.1 40.8ZM11.5 35.8C8.3 35.8 5.7 33.2 5.7 30C5.7 29.4 5.2 28.9 4.6 28.9C4.5 28.9 4.5 28.9 4.4 28.9C4.4 28.8 4.4 28.7 4.4 28.6C4.4 27.9 4.4 27.2 4.5 26.6C4.6 24.7 5.4 22.9 6.7 21.6C8 20.3 9.7 19.6 11.5 19.6C13.3 19.6 15 20.3 16.3 21.6C17.6 22.9 18.3 24.7 18.5 26.6C18.5 27.2 18.6 27.9 18.6 28.6C18.6 28.7 18.6 28.7 18.6 28.8C17.4 27 15.6 25.7 13.3 24.9C11.1 24.2 9.3 24.2 9.2 24.2C8.9 24.2 8.6 24.3 8.5 24.5L6.6 26.5C6 27 6 27.7 6.5 28.1C6.9 28.5 7.6 28.5 8 28.1L9.6 26.4C11 26.5 15.5 27 17.2 30.8C16.8 33.7 14.4 35.8 11.5 35.8ZM16 37.8V36.5C17.3 35.6 18.3 34.4 18.9 33C19 33.9 19.2 34.8 19.5 35.6C19.1 36.1 18 37.1 16 37.8ZM26.4 20.3V17.6C26.4 17.4 26.4 17.3 26.3 17.1C25.6 15.7 25.3 14.1 25.3 12.6V10.3C25.3 5.8 29 2.1 33.5 2.1H48.6V12.6C48.6 14.2 48.2 15.7 47.6 17.1C47.5 17.2 47.5 17.4 47.5 17.6V20.7C47.5 23.6 46.3 26.3 44.2 28.3C43.9 28.5 43.7 28.8 43.4 29C41.4 30.5 39 31.3 36.4 31.1C30.7 30.8 26.4 26 26.4 20.3ZM32.5 42C32.5 42.1 32.5 42.1 32.5 42C32.4 42 32.4 42 32.4 42L29 37L30.1 35.9L35.2 39.4L32.5 42ZM36.9 37.9L31.1 33.9V31.9C32.6 32.7 34.3 33.2 36.1 33.3C36.4 33.3 36.7 33.3 36.9 33.3C39 33.3 41 32.8 42.7 31.9V33.9L36.9 37.9ZM41.4 42C41.4 42 41.4 42.1 41.4 42C41.3 42 41.3 42 41.3 42L38.6 39.3L43.7 35.8L44.8 36.9L41.4 42ZM61.1 41.1L58.6 38.6C58.6 38.4 58.7 38.2 58.7 38V37.5C59.4 37.7 60.1 37.9 60.8 37.9C60.9 37.9 61 37.9 61 37.9C61.8 37.9 62.6 37.8 63.4 37.5V38C63.4 38.2 63.4 38.4 63.5 38.6L61.1 41.1ZM65.2 34.1C64.1 35.2 62.5 35.8 60.9 35.7C57.8 35.6 55.2 32.9 55.2 29.6V27.6C55.2 27.4 55.2 27.3 55.1 27.1L54.4 25.8C54.2 25.3 54 24.8 54 24.2V24.1C54 21.5 56.1 19.4 58.7 19.4H68V24C68 24.7 67.8 25.5 67.5 26.1L67 27.2C66.9 27.3 66.9 27.5 66.9 27.7V30C66.9 31.5 66.3 33 65.2 34.1Z" fill="#0045BF"/>
</svg>
