<svg width="16" height="17" viewBox="0 0 16 17" fill="none" xmlns="http://www.w3.org/2000/svg">
<g clip-path="url(#clip0)">
<path d="M3.1 11.3C4.53594 11.3 5.7 10.1359 5.7 8.7C5.7 7.26406 4.53594 6.1 3.1 6.1C1.66406 6.1 0.5 7.26406 0.5 8.7C0.5 10.1359 1.66406 11.3 3.1 11.3Z" fill="#ABABAB"/>
<path d="M3.1 11.3C4.53594 11.3 5.7 10.1359 5.7 8.7C5.7 7.26406 4.53594 6.1 3.1 6.1C1.66406 6.1 0.5 7.26406 0.5 8.7C0.5 10.1359 1.66406 11.3 3.1 11.3Z" stroke="#ABABAB" stroke-miterlimit="10"/>
<path d="M12.8998 16.2C14.3357 16.2 15.4998 15.0359 15.4998 13.6C15.4998 12.1641 14.3357 11 12.8998 11C11.4639 11 10.2998 12.1641 10.2998 13.6C10.2998 15.0359 11.4639 16.2 12.8998 16.2Z" fill="#ABABAB" stroke="#ABABAB" stroke-miterlimit="10"/>
<path d="M12.8998 5.7C14.3357 5.7 15.4998 4.53594 15.4998 3.1C15.4998 1.66406 14.3357 0.5 12.8998 0.5C11.4639 0.5 10.2998 1.66406 10.2998 3.1C10.2998 4.53594 11.4639 5.7 12.8998 5.7Z" fill="#ABABAB" stroke="#ABABAB" stroke-miterlimit="10"/>
<path d="M5.2998 7.4L10.6998 4.4" stroke="#ABABAB" stroke-miterlimit="10"/>
<path d="M5.3999 9.9L10.7999 12.2" stroke="#ABABAB" stroke-miterlimit="10"/>
</g>
<defs>
<clipPath id="clip0">
<rect width="16" height="16.7" fill="white"/>
</clipPath>
</defs>
</svg>
