<svg width="70" height="70" viewBox="0 0 70 70" fill="none" xmlns="http://www.w3.org/2000/svg">
<path d="M34.6 0C20.7 0 8.20001 8.2 2.80001 21L2.40001 21.1L2.60001 21.6C-4.59999 39.3 4.00001 59.4 21.6 66.6C25.7 68.3 30.1 69.1 34.6 69.1C53.7 69.1 69.2 53.6 69.2 34.5C69.1 15.5 53.7 0 34.6 0ZM61.7 52L59.9 50.2V46.1C59.9 45.9 59.9 45.7 59.8 45.6L55.3 36.6V32.3C55.3 31.9 55.1 31.6 54.8 31.3L51.3 29C51 28.8 50.7 28.8 50.4 28.8L46.2 29.9L39.1 26.8L38.1 19.9L40.8 17.2H46.6L48.6 20.1C48.8 20.4 49.1 20.5 49.4 20.6L56.3 21.8C56.5 21.8 56.7 21.8 56.9 21.8L63.3 19.7C68.5 30 68 42.3 61.7 52ZM56.9 11.4L55 12.6L49.8 11.6L46.4 10.5C46.2 10.4 46 10.4 45.8 10.5L41.5 11.6L39.6 11L41 8.1H44.9C45.1 8.1 45.3 8.1 45.4 8L49.4 6C52.2 7.4 54.7 9.2 56.9 11.4ZM22 4.9L24.8 6.7C24.9 6.8 25.1 6.9 25.3 6.9L30.9 7.8L30.4 9.4L27.5 10.4C27.2 10.5 27 10.7 26.9 10.9L23.6 16.4L18 19.6L10.2 20.7C9.60001 20.8 9.20001 21.3 9.20001 21.8V25.3C9.20001 25.6 9.30001 25.9 9.50001 26.1L11.5 28.1V30.1L6.70001 26.9L5.00001 21.7C8.30001 14.1 14.4 8.1 22 4.9ZM18.7 42.6L13.5 41.6L11.6 37.7V35L15.9 30.7L17.5 33.9C17.7 34.3 18.1 34.5 18.5 34.5H25.9L29 39.7C29.2 40 29.6 40.3 30 40.3H33.2L32.4 44.3L28 48.7C27.8 48.9 27.7 49.2 27.7 49.5V52.4L23.6 55.5C23.3 55.7 23.1 56.1 23.1 56.4V60.6L21.7 60.1L19.7 55V43.8C19.6 43.2 19.2 42.8 18.7 42.6ZM15.2 60.4C4.30001 52.2 -0.199988 38.1 3.70001 25.1L4.70001 28C4.80001 28.2 4.90001 28.5 5.20001 28.6L10.9 32.4L9.60001 33.7C9.40001 33.9 9.30001 34.2 9.30001 34.5V38C9.30001 38.2 9.30001 38.4 9.40001 38.5L11.7 43.1C11.9 43.4 12.2 43.6 12.5 43.7L17.3 44.7V55.3C17.3 55.4 17.3 55.6 17.4 55.7L19.7 61.5C19.8 61.8 20.1 62.1 20.4 62.2L23.9 63.4C24 63.4 24.1 63.5 24.3 63.5C24.9 63.5 25.5 63 25.5 62.3V57L29.6 53.9C29.9 53.7 30.1 53.3 30.1 53V50L34.4 45.7C34.6 45.5 34.7 45.3 34.7 45.1L35.9 39.3C36 38.7 35.6 38.1 35 37.9C34.9 37.9 34.9 37.9 34.8 37.9H30.8L27.7 32.7C27.5 32.4 27.1 32.1 26.7 32.1H19.3L17.3 28.1C17.1 27.8 16.8 27.5 16.5 27.5C16.1 27.4 15.8 27.6 15.5 27.8L14 29.3V27.5C14 27.2 13.9 26.9 13.7 26.7L11.7 24.7V22.7L18.8 21.7C19 21.7 19.1 21.6 19.2 21.5L25 18C25.2 17.9 25.3 17.8 25.4 17.6L28.6 12.2L31.7 11.2C32 11.1 32.3 10.8 32.4 10.5L33.6 7C33.8 6.4 33.5 5.7 32.9 5.5C32.8 5.5 32.8 5.5 32.7 5.5L26 4.4L24.8 3.6C32 1.2 39.9 1.5 47 4.4L44.9 5.5H40.6C40.2 5.5 39.8 5.7 39.6 6.1L37 11C36.7 11.6 36.9 12.3 37.5 12.5C37.5 12.5 37.6 12.5 37.6 12.6L41.1 13.8C41.3 13.9 41.5 13.9 41.7 13.8L46 12.7L49.1 13.7H49.2L55 14.9C55.3 15 55.6 14.9 55.9 14.7L58.5 13C59.8 14.4 61 16 62 17.6L56.3 19.5L50.2 18.5L48.2 15.5C48 15.2 47.6 15 47.2 15H40.3C40 15 39.7 15.1 39.5 15.3L36 18.8C35.7 19.1 35.6 19.4 35.7 19.8L36.9 27.9C37 28.3 37.2 28.6 37.6 28.8L45.7 32.3C45.9 32.4 46.2 32.4 46.4 32.4L50.5 31.4L53 33.1V37.1C53 37.3 53 37.5 53.1 37.6L57.6 46.6V50.9C57.6 51.2 57.7 51.5 57.9 51.7L60.3 54.1C49.7 68.2 29.5 71 15.2 60.4Z" fill="#0045BF"/>
</svg>
