<svg width="67" height="80" viewBox="0 0 67 80" fill="none" xmlns="http://www.w3.org/2000/svg">
<path d="M62.6 49.6L60 44.5C60.5 43.4 61 42.3 61.4 41.2L66.8 39.4V24.8L61.4 23C61 21.9 60.6 20.8 60 19.7L62.5 14.6L52.2 4.2L47.1 6.7C46 6.2 44.9 5.7 43.8 5.3L42 0H27.3L25.5 5.4C24.4 5.8 23.3 6.2 22.2 6.8L17.1 4.3L6.8 14.6L9.3 19.7C8.8 20.8 8.3 21.9 7.9 23L2.5 24.8V39.5L7.9 41.3C8.3 42.4 8.7 43.5 9.3 44.6L7.6 47.6H0V73.3H9V69.4H18.7L22.6 73.3H29.6V74.6C29.6 77.4 31.9 79.7 34.7 79.7C37.5 79.7 39.8 77.4 39.8 74.6V73.3H48.8C50.9 73.3 52.7 71.6 52.7 69.4C52.7 68.4 52.3 67.5 51.7 66.8C52.3 66.1 52.7 65.2 52.7 64.2C52.7 63.2 52.3 62.3 51.7 61.6C52.2 61.1 52.5 60.4 52.6 59.6L62.6 49.6ZM11.9 43.9C11.2 42.5 10.6 41.2 10.2 39.8L10 39.2L5.2 37.6V26.6L10 25L10.2 24.4C10.6 23 11.2 21.7 11.9 20.3L12.2 19.7L9.9 15.1L17.7 7.3L22.3 9.6L22.9 9.3C24.3 8.6 25.6 8 27 7.6L27.6 7.4L29.2 2.6H40.2L41.8 7.4L42.4 7.6C43.8 8 45.1 8.6 46.5 9.3L47.1 9.6L51.7 7.3L59.5 15.1L57.2 19.7L57.5 20.3C58.2 21.7 58.8 23 59.2 24.4L59.4 25L64.2 26.6V37.6L59.4 39.2L59.2 39.8C58.8 41.2 58.2 42.5 57.5 43.9L57.2 44.5L59.5 49.1L51.9 56.7C51.8 56.6 51.8 56.5 51.7 56.4C52.3 55.7 52.7 54.8 52.7 53.8C52.7 51.8 51.2 50.2 49.2 50C54.6 45.6 57.8 39.1 57.8 32C57.8 19.4 47.4 9 34.7 9C22 9 11.6 19.4 11.6 32.1C11.6 39.1 14.8 45.7 20.2 50.1H9.2L12.2 44.6L11.9 43.9ZM50.1 64.2C50.1 64.9 49.5 65.5 48.8 65.5H38.5C37.8 65.5 37.2 64.9 37.2 64.2C37.2 63.5 37.8 62.9 38.5 62.9H48.8C49.5 62.9 50.1 63.5 50.1 64.2ZM31.6 32.1H37.8L39.8 30.1V24.4C41.2 24.4 42.4 25.6 42.4 27V32.9L38 37.2H31.4L27 32.9V27C27 25.6 28.2 24.4 29.6 24.4V30.1L31.6 32.1ZM32.1 39.8H37.2V44.9H32.1V39.8ZM39.8 39.1L44.9 34V27C44.9 24.2 42.6 21.9 39.8 21.9H37.2V29L36.7 29.5H32.6L32.1 29V21.8H29.5C26.7 21.8 24.4 24.1 24.4 26.9V33.9L29.5 39V44.9H26.4V45C22 42.2 19.3 37.3 19.3 32.1C19.3 23.6 26.2 16.7 34.7 16.7C43.2 16.7 50.1 23.6 50.1 32.1C50.1 37.3 47.5 42.1 43.1 44.9H39.8V39.1ZM52.6 32.1C52.6 22.2 44.5 14.1 34.6 14.1C24.7 14.1 16.6 22.2 16.6 32.1C16.6 38 19.6 43.6 24.4 46.9L22.6 48.7C17.3 44.8 14.1 38.7 14.1 32.1C14.1 20.8 23.3 11.6 34.6 11.6C45.9 11.6 55.1 20.8 55.1 32.1C55.1 38.4 52.2 44.3 47.3 48.2C47.2 47.3 46.7 46.5 46 45.9C50.3 42.5 52.6 37.5 52.6 32.1ZM48.8 52.6C49.5 52.6 50.1 53.2 50.1 53.9C50.1 54.6 49.5 55.2 48.8 55.2H38.5C37.8 55.2 37.2 54.6 37.2 53.9C37.2 53.2 37.8 52.6 38.5 52.6H48.8ZM38.5 60.3C37.8 60.3 37.2 59.7 37.2 59C37.2 58.3 37.8 57.7 38.5 57.7H48.8C49.5 57.7 50.1 58.3 50.1 59C50.1 59.7 49.5 60.3 48.8 60.3H38.5ZM6.4 70.6H1.6V50.1H6.5V70.6H6.4ZM23.6 70.6L19.7 66.7H9V52.6H22.4L27.5 47.5H43.7C44.4 47.5 45 48.1 45 48.8C45 49.5 44.4 50.1 43.7 50.1H30.3L24.8 55.6L26.6 57.4L29.5 54.5V70.7H23.6V70.6ZM34.7 77C33.3 77 32.1 75.8 32.1 74.4V52.6H34.9C34.8 53 34.7 53.4 34.7 53.9C34.7 54.9 35.1 55.8 35.7 56.5C35.1 57.2 34.7 58.1 34.7 59.1C34.7 60.1 35.1 61 35.7 61.7C35.1 62.4 34.7 63.3 34.7 64.3C34.7 65.3 35.1 66.2 35.7 66.9C35.1 67.6 34.7 68.5 34.7 69.5C34.7 71.2 35.8 72.6 37.3 73.1V74.6C37.2 75.9 36.1 77 34.7 77ZM48.8 70.6H38.5C37.8 70.6 37.2 70 37.2 69.3C37.2 68.6 37.8 68 38.5 68H48.8C49.5 68 50.1 68.6 50.1 69.3C50.1 70 49.5 70.6 48.8 70.6Z" fill="#0045BF"/>
</svg>
