<svg width="31" height="18" viewBox="0 0 31 18" fill="none" xmlns="http://www.w3.org/2000/svg">
<path d="M30.2 15.8C30.2 15.7 30.1 15.7 30.1 15.6C29.6 14.7 28.6 13.6 27.2 12.2C26.5 11.6 26.1 11.2 26 10.9C25.7 10.5 25.6 10.1 25.8 9.7C25.9 9.4 26.4 8.7 27.2 7.7C27.6 7.2 28 6.7 28.2 6.4C30 4 30.7 2.5 30.5 1.9L30.4 1.7C30.3 1.6 30.2 1.5 29.9 1.4C29.6 1.3 29.3 1.3 28.9 1.4H24.5C24.4 1.4 24.3 1.4 24.2 1.4C24.1 1.4 24 1.4 24 1.4H23.9H23.8C23.7 1.4 23.7 1.5 23.6 1.6C23.5 1.7 23.5 1.8 23.4 1.9C22.9 3.1 22.4 4.3 21.8 5.4C21.4 6 21.1 6.6 20.8 7C20.5 7.5 20.2 7.8 20 8C19.8 8.2 19.6 8.4 19.4 8.5C19.2 8.6 19.1 8.7 19 8.7C18.9 8.7 18.8 8.7 18.7 8.6C18.6 8.5 18.4 8.4 18.4 8.2C18.3 8 18.3 7.8 18.2 7.6C18.2 7.4 18.2 7.2 18.1 7C18.1 6.8 18.1 6.6 18.1 6.3C18.1 6 18.1 5.8 18.1 5.7C18.1 5.3 18.1 4.9 18.1 4.4C18.1 3.9 18.1 3.6 18.1 3.3C18.1 3 18.1 2.8 18.1 2.5C18.1 2.2 18.1 2 18 1.8C18 1.6 17.9 1.5 17.8 1.3C17.7 1.1 17.6 1 17.5 0.9C17.4 0.8 17.2 0.7 17 0.7C16.5 0.6 15.8 0.5 14.9 0.5C13 0.5 11.8 0.6 11.2 0.9C11 1 10.8 1.2 10.6 1.4C10.4 1.6 10.4 1.7 10.5 1.8C11.1 1.9 11.5 2.1 11.8 2.5L11.9 2.7C12 2.8 12 3.1 12.1 3.4C12.2 3.7 12.2 4.1 12.2 4.5C12.3 5.2 12.3 5.9 12.2 6.4C12.1 6.9 12.1 7.3 12.1 7.6C12.1 7.9 12 8.1 11.9 8.3C11.8 8.5 11.7 8.6 11.7 8.6L11.6 8.7C11.5 8.8 11.3 8.8 11.2 8.8C11.1 8.8 10.9 8.7 10.7 8.6C10.5 8.5 10.3 8.3 10.1 8C9.89999 7.7 9.6 7.4 9.4 6.9C9.1 6.5 8.8 5.9 8.5 5.3L8.3 4.9C8.1 4.6 7.9 4.2 7.7 3.7C7.4 3.2 7.2 2.6 7 2.1C6.9 1.9 6.79999 1.7 6.59999 1.6H6.5C6.4 1.6 6.4 1.5 6.3 1.5C6.2 1.5 6.1 1.4 5.9 1.4H1.7C1.3 1.4 0.999995 1.5 0.799995 1.7L0.699997 1.8C0.699997 1.9 0.699997 1.9 0.699997 2C0.699997 2.1 0.699995 2.3 0.799995 2.4C1.4 3.8 2.1 5.2 2.8 6.6C3.5 7.9 4.1 9 4.7 9.8C5.2 10.6 5.8 11.4 6.3 12.1C6.9 12.8 7.2 13.3 7.4 13.5C7.6 13.7 7.7 13.9 7.8 14L8.2 14.4C8.4 14.6 8.8 14.9 9.3 15.3C9.8 15.6 10.3 16 10.9 16.3C11.5 16.6 12.2 16.9 12.9 17.1C13.7 17.3 14.4 17.4 15.1 17.4H16.9C17.3 17.4 17.5 17.3 17.7 17.1L17.8 17C17.8 16.9 17.9 16.8 17.9 16.7C17.9 16.6 18 16.4 18 16.3C18 15.9 18 15.5 18.1 15.1C18.2 14.7 18.3 14.5 18.4 14.3C18.5 14.1 18.6 14 18.7 13.8C18.8 13.7 18.9 13.6 19 13.6C19.1 13.6 19.1 13.6 19.1 13.5C19.3 13.4 19.6 13.5 20 13.7C20.3 13.9 20.6 14.2 20.9 14.6C21.2 15 21.5 15.3 22 15.8C22.4 16.2 22.8 16.6 23.1 16.8L23.4 17C23.6 17.1 23.9 17.2 24.2 17.3C24.5 17.4 24.8 17.4 25.1 17.4L29 17.3C29.4 17.3 29.7 17.2 29.9 17.1C30.1 17 30.2 16.8 30.3 16.7C30.3 16.5 30.3 16.4 30.3 16.2C30.2 16 30.2 15.9 30.2 15.8Z" fill="white" fill-opacity="0.3"/>
</svg>
