<svg width="30" height="22" viewBox="0 0 30 22" fill="none" xmlns="http://www.w3.org/2000/svg">
<path d="M28.1 2.5999C27.1 1.3999 25.2 0.899902 21.5 0.899902H8.3C4.6 0.899902 2.60001 1.3999 1.60001 2.6999C0.600006 3.9999 0.600006 5.8999 0.600006 8.4999V13.4999C0.600006 18.4999 1.8 21.0999 8.3 21.0999H21.5C24.7 21.0999 26.4 20.6999 27.6 19.5999C28.8 18.4999 29.3 16.6999 29.3 13.4999V8.4999C29.2 5.7999 29.1 3.8999 28.1 2.5999ZM18.9 11.6999L12.9 14.7999C12.8 14.8999 12.6 14.8999 12.5 14.8999C12.3 14.8999 12.2 14.8999 12 14.7999C11.7 14.5999 11.6 14.2999 11.6 13.9999V7.6999C11.6 7.3999 11.8 7.0999 12 6.8999C12.3 6.6999 12.6 6.6999 12.9 6.8999L18.9 9.9999C19.2 10.1999 19.4 10.4999 19.4 10.7999C19.4 11.1999 19.3 11.4999 18.9 11.6999Z" fill="white" fill-opacity="0.3"/>
</svg>
